<svg id="Слой_1" data-name="Слой 1" xmlns="http://www.w3.org/2000/svg" xmlns:xlink="http://www.w3.org/1999/xlink" viewBox="0 0 488.33 560.65"><defs><style>.cls-1{fill:#fff;}.cls-2{filter:url(#filter-4);}.cls-3{fill:url(#Безымянный_градиент_2);}.cls-4{filter:url(#filter-7);}.cls-5{fill:url(#Безымянный_градиент_3);}.cls-6{fill:url(#Безымянный_градиент_4);}.cls-7{fill:url(#Безымянный_градиент_5);}.cls-8{fill:url(#Безымянный_градиент_6);}.cls-9{fill:url(#Безымянный_градиент_7);}.cls-10{filter:url(#filter-12);}.cls-11{fill:url(#Безымянный_градиент_8);}.cls-12{filter:url(#filter-14);}.cls-13{fill:url(#Безымянный_градиент_9);}.cls-14{fill:url(#Безымянный_градиент_10);}.cls-15{fill:url(#Безымянный_градиент_11);}.cls-16{fill:url(#Безымянный_градиент_12);}.cls-17{fill:url(#Безымянный_градиент_13);}.cls-18{filter:url(#filter-17);}.cls-19{fill:url(#Безымянный_градиент_14);}.cls-20{filter:url(#filter-19);}.cls-21{fill:url(#Безымянный_градиент_15);}.cls-22{fill:url(#Безымянный_градиент_16);}.cls-23{fill:url(#Безымянный_градиент_152);}.cls-24{fill:url(#Безымянный_градиент_18);}.cls-25{fill:url(#Безымянный_градиент_19);}.cls-26{fill:url(#Безымянный_градиент_20);}.cls-27{fill:url(#Безымянный_градиент_21);}.cls-28{fill:url(#Безымянный_градиент_22);}.cls-29{fill:url(#Безымянный_градиент_23);}.cls-30{mask:url(#mask);}.cls-31{fill:url(#Безымянный_градиент_24);}.cls-32{filter:url(#filter-27);}.cls-33{fill:url(#Безымянный_градиент_25);}.cls-34{filter:url(#filter-30);}.cls-35{fill:url(#Безымянный_градиент_26);}.cls-36{fill:url(#Безымянный_градиент_27);}</style><filter id="filter-4" x="-89.07" y="-26.73" width="229.9" height="156.3" name="filter-4"><feOffset result="shadowOffsetOuter1" dy="2" in="SourceAlpha"/><feGaussianBlur result="shadowBlurOuter1" stdDeviation="12.5" in="shadowOffsetOuter1"/><feColorMatrix values="0 0 0 0 0.95 0 0 0 0 0.38 0 0 0 0 0.33 0 0 0 0.55 0" in="shadowBlurOuter1"/></filter><linearGradient id="Безымянный_градиент_2" x1="-411.43" y1="663.45" x2="-411.43" y2="664.45" gradientTransform="matrix(59.3, 0, 0, -136.78, 24686.63, 91059.91)" gradientUnits="userSpaceOnUse"><stop offset="0" stop-color="#e85557"/><stop offset="1" stop-color="#f9b44d"/></linearGradient><filter id="filter-7" x="-89.07" y="-26.73" width="229.9" height="156.3" name="filter-7"><feOffset result="shadowOffsetOuter1" dy="2" in="SourceAlpha"/><feGaussianBlur result="shadowBlurOuter1" stdDeviation="12.5" in="shadowOffsetOuter1"/><feColorMatrix values="0 0 0 0 0.95 0 0 0 0 0.38 0 0 0 0 0.33 0 0 0 0.55 0" in="shadowBlurOuter1"/></filter><linearGradient id="Безымянный_градиент_3" x1="-425.57" y1="663.45" x2="-425.57" y2="664.45" gradientTransform="translate(-25003.82 91059.91) rotate(180) scale(59.3 136.78)" gradientUnits="userSpaceOnUse"><stop offset="0" stop-color="#f27374"/><stop offset="1" stop-color="#fdb77b"/></linearGradient><linearGradient id="Безымянный_градиент_4" x1="-411.49" y1="663.73" x2="-411.49" y2="664.73" gradientTransform="matrix(59.78, 0, 0, -218.06, 24886.59, 144931.37)" gradientUnits="userSpaceOnUse"><stop offset="0" stop-color="#2f2643"/><stop offset="1" stop-color="#4e4269"/></linearGradient><linearGradient id="Безымянный_градиент_5" x1="-425.51" y1="663.73" x2="-425.51" y2="664.73" gradientTransform="translate(-25205.22 143903.89) rotate(180) scale(59.78 216.51)" gradientUnits="userSpaceOnUse"><stop offset="0" stop-color="#44395c"/><stop offset="1" stop-color="#4e4269"/></linearGradient><linearGradient id="Безымянный_градиент_6" x1="-414.89" y1="663.15" x2="-415.12" y2="662.37" gradientTransform="matrix(119.58, 0, 0, -59.43, 49886.03, 39418.59)" gradientUnits="userSpaceOnUse"><stop offset="0" stop-color="#4b3f65"/><stop offset="1" stop-color="#62587d"/></linearGradient><linearGradient id="Безымянный_градиент_7" x1="-416.23" y1="662.83" x2="-415.26" y2="662.83" gradientTransform="matrix(151.42, 0, 0, -61.21, 63190.35, 40946.81)" gradientUnits="userSpaceOnUse"><stop offset="0" stop-color="#0e1523"/><stop offset="1" stop-color="#0a1424" stop-opacity="0"/></linearGradient><filter id="filter-12" x="-89.07" y="-19.93" width="229.9" height="141.9" name="filter-12"><feOffset result="shadowOffsetOuter1" dy="2" in="SourceAlpha"/><feGaussianBlur result="shadowBlurOuter1" stdDeviation="12.5" in="shadowOffsetOuter1"/><feColorMatrix values="0 0 0 0 0.95 0 0 0 0 0.38 0 0 0 0 0.33 0 0 0 0.55 0" in="shadowBlurOuter1"/></filter><linearGradient id="Безымянный_градиент_8" x1="-411.43" y1="663.65" x2="-411.43" y2="664.65" gradientTransform="matrix(59.3, 0, 0, -183.79, 24591.51, 122342.71)" xlink:href="#Безымянный_градиент_2"/><filter id="filter-14" x="-89.07" y="-21.03" width="229.9" height="144.2" name="filter-14"><feOffset result="shadowOffsetOuter1" dy="2" in="SourceAlpha"/><feGaussianBlur result="shadowBlurOuter1" stdDeviation="12.5" in="shadowOffsetOuter1"/><feColorMatrix values="0 0 0 0 0.95 0 0 0 0 0.38 0 0 0 0 0.33 0 0 0 0.55 0" in="shadowBlurOuter1"/></filter><linearGradient id="Безымянный_градиент_9" x1="-425.57" y1="663.61" x2="-425.57" y2="664.62" gradientTransform="translate(-25098.94 115858.34) rotate(180) scale(59.3 174.03)" xlink:href="#Безымянный_градиент_3"/><linearGradient id="Безымянный_градиент_10" x1="-411.49" y1="663.75" x2="-411.49" y2="664.76" gradientTransform="matrix(59.78, 0, 0, -230.66, 24791.47, 153318.46)" xlink:href="#Безымянный_градиент_4"/><linearGradient id="Безымянный_градиент_11" x1="-425.51" y1="663.75" x2="-425.51" y2="664.76" gradientTransform="translate(-25300.34 153318.46) rotate(180) scale(59.78 230.66)" xlink:href="#Безымянный_градиент_5"/><linearGradient id="Безымянный_градиент_12" x1="-414.88" y1="663.15" x2="-415.11" y2="662.36" gradientTransform="matrix(119.24, 0, 0, -59.22, 49672.67, 39283.76)" xlink:href="#Безымянный_градиент_6"/><linearGradient id="Безымянный_градиент_13" x1="-415.81" y1="663.36" x2="-415.67" y2="662.36" gradientTransform="matrix(151.42, 0, 0, -61.21, 63084.39, 41014.79)" xlink:href="#Безымянный_градиент_7"/><filter id="filter-17" x="-89.07" y="-8.43" width="229.9" height="117.7" name="filter-17"><feOffset result="shadowOffsetOuter1" dy="2" in="SourceAlpha"/><feGaussianBlur result="shadowBlurOuter1" stdDeviation="12.5" in="shadowOffsetOuter1"/><feColorMatrix values="0 0 0 0 0.95 0 0 0 0 0.38 0 0 0 0 0.33 0 0 0 0.55 0" in="shadowBlurOuter1"/></filter><linearGradient id="Безымянный_градиент_14" x1="-411.43" y1="663.96" x2="-411.43" y2="664.97" gradientTransform="matrix(59.3, 0, 0, -435.26, 24485.55, 289382.71)" xlink:href="#Безымянный_градиент_2"/><filter id="filter-19" x="-89.07" y="-8.43" width="229.9" height="117.7" name="filter-19"><feOffset result="shadowOffsetOuter1" dy="2" in="SourceAlpha"/><feGaussianBlur result="shadowBlurOuter1" stdDeviation="12.5" in="shadowOffsetOuter1"/><feColorMatrix values="0 0 0 0 0.95 0 0 0 0 0.38 0 0 0 0 0.33 0 0 0 0.55 0" in="shadowBlurOuter1"/></filter><linearGradient id="Безымянный_градиент_15" x1="-425.57" y1="663.96" x2="-425.57" y2="664.97" gradientTransform="translate(-25204.9 289382.71) rotate(180) scale(59.3 435.26)" xlink:href="#Безымянный_градиент_3"/><linearGradient id="Безымянный_градиент_16" x1="-414.86" y1="663.13" x2="-415.09" y2="662.34" gradientTransform="matrix(118.64, 0, 0, -58.65, 49292.46, 38914.01)" gradientUnits="userSpaceOnUse"><stop offset="0" stop-color="#fbb576"/><stop offset="1" stop-color="#fbd4be"/></linearGradient><radialGradient id="Безымянный_градиент_152" cx="-417.35" cy="663.96" r="0.61" gradientTransform="matrix(312.35, 0, 0, -151.4, 130642.78, 100989.47)" xlink:href="#Безымянный_градиент_7"/><linearGradient id="Безымянный_градиент_18" x1="-416.3" y1="663.79" x2="-415.74" y2="663.19" gradientTransform="matrix(169.33, 0, 0, -102.78, 70801.1, 68513.47)" xlink:href="#Безымянный_градиент_6"/><linearGradient id="Безымянный_градиент_19" x1="-416.83" y1="663.85" x2="-416.83" y2="664.85" gradientTransform="matrix(250.89, 0, 0, -290.31, 104916.61, 193226.16)" xlink:href="#Безымянный_градиент_4"/><linearGradient id="Безымянный_градиент_20" x1="-413.42" y1="663.45" x2="-413.42" y2="664.46" gradientTransform="matrix(82.44, 0, 0, -137.39, 34227.69, 91685.29)" xlink:href="#Безымянный_градиент_5"/><linearGradient id="Безымянный_градиент_21" x1="-413.47" y1="663.53" x2="-413.47" y2="664.53" gradientTransform="matrix(83.33, 0, 0, -153, 34686.51, 101909.99)" xlink:href="#Безымянный_градиент_5"/><linearGradient id="Безымянный_градиент_22" x1="-416.24" y1="663.79" x2="-415.68" y2="663.19" gradientTransform="matrix(165.58, 0, 0, -102.74, 69063.64, 68591.48)" xlink:href="#Безымянный_градиент_6"/><linearGradient id="Безымянный_градиент_23" x1="-416.21" y1="663.74" x2="-415.65" y2="663.14" gradientTransform="matrix(163.27, 0, 0, -97.77, 68180.14, 65131.7)" xlink:href="#Безымянный_градиент_6"/><mask id="mask" x="188.76" y="190.29" width="217.52" height="128.16" maskUnits="userSpaceOnUse"><g transform="translate(-24.17 -0.03)"><g id="mask-24"><polygon id="path-23" class="cls-1" points="212.93 269.1 292.98 220.71 376.2 270.08 296.14 318.48 212.93 269.1"/></g></g></mask><linearGradient id="Безымянный_градиент_24" x1="-416.21" y1="662.32" x2="-415.24" y2="662.32" gradientTransform="matrix(150.24, 0, 0, -47.33, 62787.34, 31560.21)" xlink:href="#Безымянный_градиент_7"/><filter id="filter-27" x="-53.17" y="-18.03" width="158" height="138" name="filter-27"><feOffset result="shadowOffsetOuter1" dy="2" in="SourceAlpha"/><feGaussianBlur result="shadowBlurOuter1" stdDeviation="12.5" in="shadowOffsetOuter1"/><feColorMatrix values="0 0 0 0 0.95 0 0 0 0 0.38 0 0 0 0 0.33 0 0 0 0.55 0" in="shadowBlurOuter1"/></filter><linearGradient id="Безымянный_градиент_25" x1="-415.51" y1="663.74" x2="-415.14" y2="664.67" gradientTransform="matrix(132.87, 0, 0, -202.72, 55484.46, 134794.77)" xlink:href="#Безымянный_градиент_3"/><filter id="filter-30" x="-56.27" y="-19.83" width="164.3" height="141.7" name="filter-30"><feOffset result="shadowOffsetOuter1" dy="2" in="SourceAlpha"/><feGaussianBlur result="shadowBlurOuter1" stdDeviation="12.5" in="shadowOffsetOuter1"/><feColorMatrix values="0 0 0 0 0.95 0 0 0 0 0.38 0 0 0 0 0.33 0 0 0 0.55 0" in="shadowBlurOuter1"/></filter><linearGradient id="Безымянный_градиент_26" x1="-415.12" y1="663.65" x2="-414.72" y2="664.64" gradientTransform="matrix(0, 119.83, 184.58, 0, -122219.62, 49931.24)" xlink:href="#Безымянный_градиент_2"/><linearGradient id="Безымянный_градиент_27" x1="-413.33" y1="663.93" x2="-413.56" y2="663.14" gradientTransform="matrix(82.13, 0, 0, -106.51, 34255.09, 70874.38)" xlink:href="#Безымянный_градиент_16"/></defs><title>Img</title><g id="Index-v5"><g id="Text"><g id="Img"><g id="img-2"><g id="_1-copy-4" data-name="1-copy-4"><g id="Rectangle-7"><g class="cls-2"><polygon id="path-3" points="260.41 243.83 319.7 203.02 319.7 299 260.41 339.81 260.41 243.83"/></g><polygon id="path-3-2" data-name="path-3" class="cls-3" points="260.41 243.83 319.7 203.02 319.7 299 260.41 339.81 260.41 243.83"/></g><g id="Rectangle-7-Copy"><g class="cls-4"><polygon id="path-6" points="260.41 243.83 201.11 203.02 201.11 299 260.41 339.81 260.41 243.83"/></g><polygon id="path-6-2" data-name="path-6" class="cls-5" points="260.41 243.83 201.11 203.02 201.11 299 260.41 339.81 260.41 243.83"/></g></g><g id="_2-copy-2" data-name="2-copy-2"><polygon id="Rectangle-7-2" data-name="Rectangle-7" class="cls-6" points="259.68 59.14 319.46 27.5 319.46 204.15 259.68 245.56 259.68 59.14"/><polygon id="Rectangle-7-Copy-2" data-name="Rectangle-7-Copy" class="cls-7" points="259.68 59.14 199.91 27.5 199.91 202.6 259.68 244.01 259.68 59.14"/><polygon id="Path-25" class="cls-8" points="199.85 28.13 255.95 0 319.43 28.13 259.64 59.43 199.85 28.13"/></g><g id="_1-copy-2" data-name="1-copy-2"><rect id="Rectangle-11" class="cls-9" x="165.29" y="345.58" width="151.42" height="61.21"/><g id="Rectangle-7-3" data-name="Rectangle-7"><g class="cls-10"><polygon id="path-11" points="165.29 263.8 224.58 223 224.58 365.99 165.29 406.79 165.29 263.8"/></g><polygon id="path-11-2" data-name="path-11" class="cls-11" points="165.29 263.8 224.58 223 224.58 365.99 165.29 406.79 165.29 263.8"/></g><g id="Rectangle-7-Copy-3" data-name="Rectangle-7-Copy"><g class="cls-12"><polygon id="path-13" points="165.29 263.8 105.99 232.76 105.99 375.75 165.29 406.79 165.29 263.8"/></g><polygon id="path-13-2" data-name="path-13" class="cls-13" points="165.29 263.8 105.99 232.76 105.99 375.75 165.29 406.79 165.29 263.8"/></g></g><g id="_2" data-name="2"><polygon id="Rectangle-7-4" data-name="Rectangle-7" class="cls-14" points="164.56 64.95 224.34 33.44 224.34 222.82 164.56 264.1 164.56 64.95"/><polygon id="Rectangle-7-Copy-4" data-name="Rectangle-7-Copy" class="cls-15" points="164.56 64.95 104.79 33.44 104.79 232.58 164.56 264.1 164.56 64.95"/><path id="Path-24" class="cls-16" d="M129.26,33.82,185.74,6.11,248.5,33.82,188.88,65.33Z" transform="translate(-24.17 -0.03)"/></g><g id="_1" data-name="1"><rect id="Rectangle-11-2" data-name="Rectangle-11" class="cls-17" x="59.33" y="414.57" width="151.42" height="61.21"/><g id="Rectangle-7-5" data-name="Rectangle-7"><g class="cls-18"><polygon id="path-16" points="59.33 71.56 118.62 40.52 118.62 434.97 59.33 475.77 59.33 71.56"/></g><polygon id="path-16-2" data-name="path-16" class="cls-19" points="59.33 71.56 118.62 40.52 118.62 434.97 59.33 475.77 59.33 71.56"/></g><g id="Rectangle-7-Copy-5" data-name="Rectangle-7-Copy"><g class="cls-20"><polygon id="path-18" points="59.33 71.56 0.03 40.52 0.03 444.74 59.33 475.77 59.33 71.56"/></g><polygon id="path-18-2" data-name="path-18" class="cls-21" points="59.33 71.56 0.03 40.52 0.03 444.74 59.33 475.77 59.33 71.56"/></g><polygon id="Path-23-2" data-name="Path-23" class="cls-22" points="0 40.74 55.91 13.03 118.64 40.74 59.32 71.68 0 40.74"/></g></g><g id="img-2-2" data-name="img"><polygon id="Rectangle-11-Copy" class="cls-23" points="189.22 409.24 488.33 409.24 488.33 560.65 189.22 560.65 189.22 409.24"/><polygon id="Rectangle-35-Copy" class="cls-24" points="270.38 324.08 356.5 270.68 439.71 320.05 353.6 373.46 270.38 324.08"/><path id="Combined-Shape" class="cls-25" d="M376.58,372.6l87.32-52.93v88.48L213,560.22V471.74l83.08-50.35v-103l80.49-48.51Z" transform="translate(-24.17 -0.03)"/><polygon id="Rectangle-34" class="cls-26" points="106.41 422.8 188.85 471.37 188.85 560.19 106.41 511.62 106.41 422.8"/><polygon id="Rectangle-34-Copy" class="cls-27" points="188.85 268.68 272.18 316.16 272.18 421.68 188.85 374.2 188.85 268.68"/><polygon id="Rectangle-35" class="cls-28" points="106.48 423.24 189.36 371.45 272.06 421.47 188.08 474.19 106.48 423.24"/><g id="Rectangle-11-3" data-name="Rectangle-11"><g id="Mask-2" data-name="Mask"><polygon id="path-23-3" data-name="path-23" class="cls-29" points="188.76 269.08 268.81 220.68 352.03 270.06 271.98 318.45 188.76 269.08"/></g><g class="cls-30"><rect class="cls-31" x="256.04" y="190.29" width="150.24" height="47.33"/></g></g></g><g id="Group-7"><g id="Oval-13-Copy-2"><g class="cls-32"><path id="path-26" d="M253.41,274.45c-26.25-10.6-31.22-59.57-11.1-109.38s57.72-81.57,84-71q6.72,2.72,36.54,18.32-10.45,54-25.44,91.07Q322.23,241,295.26,294.78,260.43,278.49,253.41,274.45Z" transform="translate(-24.17 -0.03)"/></g><path id="path-26-2" data-name="path-26" class="cls-33" d="M253.41,274.45c-26.25-10.6-31.22-59.57-11.1-109.38s57.72-81.57,84-71q6.72,2.72,36.54,18.32-10.45,54-25.44,91.07Q322.23,241,295.26,294.78,260.43,278.49,253.41,274.45Z" transform="translate(-24.17 -0.03)"/></g><g id="Oval-13-Copy"><g class="cls-34"><ellipse id="path-29" cx="329.7" cy="203.32" rx="97.54" ry="63.32" transform="translate(1.71 443.58) rotate(-70)"/></g><ellipse id="path-29-2" data-name="path-29" class="cls-35" cx="329.7" cy="203.32" rx="97.54" ry="63.32" transform="translate(1.71 443.58) rotate(-70)"/></g><polygon id="Star" class="cls-36" points="304.53 227.08 279.15 256.97 283.99 220.84 263.46 208.58 291.84 187.93 304.53 150.46 317.21 173.83 345.59 162.93 325.06 198.02 329.9 228.76 304.53 227.08"/></g></g></g></g></svg>